<?xml version="1.0" encoding="UTF-8"?>
<svg width="16px" height="16px" viewBox="0 0 16 16" version="1.1" xmlns="http://www.w3.org/2000/svg" xmlns:xlink="http://www.w3.org/1999/xlink">
    <defs>
        <path d="M10.0837474,12.2287579 L11.1658526,13.3108632 L5.7528,18.7256 L4.67069474,17.6434947 L10.0837474,12.2287579 Z M17.6622737,4.65141053 L18.7452211,5.73435789 L13.3321684,11.1474105 L12.2492211,10.0644632 L17.6622737,4.65141053 Z M18.7453895,8.98286316 C19.1790737,9.41654737 19.4173895,9.99338947 19.4173895,10.6064421 C19.4173895,11.2194947 19.1790737,11.7963368 18.7453895,12.2291789 L12.2493895,18.7251789 C11.8157053,19.1597053 11.2388632,19.3980211 10.6258105,19.3980211 C10.0119158,19.3980211 9.43591579,19.1597053 9.00138947,18.7251789 L8.45991579,18.1837053 L9.54286316,17.1024421 L10.0843368,17.6439158 C10.3731789,17.9319158 10.8776,17.9319158 11.1672842,17.6439158 L17.6632842,11.1470737 C17.8064421,11.0022316 17.8864421,10.8102316 17.8864421,10.6064421 C17.8864421,10.4018105 17.8072842,10.2098105 17.6632842,10.0658105 L17.1209684,9.52433684 L18.2030737,8.44138947 L18.7453895,8.98286316 Z M5.212,14.9357895 L4.67136842,14.3943158 C3.77621053,13.4991579 3.77621053,12.0423158 4.67136842,11.1463158 L11.1673684,4.65115789 C12.0338947,3.78294737 13.5471579,3.78294737 14.4153684,4.65115789 L14.956,5.19263158 L13.8738947,6.27473684 L13.3332632,5.73326316 C13.1875789,5.58842105 12.9964211,5.50926316 12.7909474,5.50926316 C12.5854737,5.50926316 12.3934737,5.58842105 12.2494737,5.73326316 L5.75347368,12.2292632 C5.45452632,12.5282105 5.45452632,13.0132632 5.75347368,13.3122105 L6.29410526,13.8536842 L5.212,14.9357895 Z" id="path-1"></path>
    </defs>
    <g id="Symbols" stroke="none" stroke-width="1" fill="none" fill-rule="evenodd">
        <g id="-link" transform="translate(-4.000000, -4.000000)">
            <mask id="mask-2" fill="white">
                <use xlink:href="#path-1"></use>
            </mask>
            <use id="shape---link" fill="#666" xlink:href="#path-1"></use>
        </g>
    </g>
</svg>
