<?xml version="1.0" encoding="UTF-8"?>
<svg width="17px" height="14px" viewBox="0 0 17 14" version="1.1" xmlns="http://www.w3.org/2000/svg" xmlns:xlink="http://www.w3.org/1999/xlink">
    <defs>
        <path d="M18.8860621,8.49236834 L18.8860621,8.94778385 C18.8860621,13.6198212 15.4656079,19 9.21480445,19 C7.36243828,19 5.55068327,18.4479041 4,17.4107101 C4.26853093,17.4420888 4.53954827,17.4565061 4.8097368,17.455658 C6.34218649,17.4624426 7.83153861,16.9357889 9.03246863,15.9630485 C7.57958366,15.9070757 6.32063771,14.9156776 5.89629253,13.4926102 C6.10846512,13.5324696 6.3231241,13.5519753 6.53861189,13.5519753 C6.84195239,13.5519753 7.14363529,13.5095716 7.4353726,13.4256124 C5.83910538,13.0787503 4.69950651,11.6327848 4.7077945,9.96292793 L4.7077945,9.92561269 C5.17772364,10.1978443 5.70649751,10.3496495 6.24687458,10.3657629 C4.74923446,9.31330356 4.29173731,7.2609655 5.19595722,5.64877762 C6.90825633,7.84868049 9.4609578,9.19118097 12.2051119,9.33535348 C12.1462671,9.07160259 12.1172592,8.80106712 12.118088,8.52968358 C12.105656,6.59522774 13.6265025,5.01611473 15.5161646,5.00000133 C16.4585093,4.99915326 17.3577564,5.40283628 17.9959318,6.1118258 C18.7692014,5.95832448 19.5093191,5.66828331 20.1839616,5.25357533 C19.9328355,6.06857404 19.402404,6.76314631 18.6888079,7.20838494 C19.3642792,7.12442565 20.0240034,6.93530524 20.6439452,6.64865637 C20.1715296,7.3669747 19.5764518,7.99200493 18.8860621,8.49236834" id="path-1"></path>
    </defs>
    <g id="Symbols" stroke="none" stroke-width="1" fill="none" fill-rule="evenodd">
        <g id="-twitter" transform="translate(-4.000000, -5.000000)">
            <mask id="mask-2" fill="white">
                <use xlink:href="#path-1"></use>
            </mask>
            <use id="shape---twitter" fill="#4098FF" xlink:href="#path-1"></use>
        </g>
    </g>
</svg>
